# xmcd
# Track frame offsets:
# 150
# 11732
# 29897
# 44722
# 62985
# 75332
# 94092
# 107242
# 125165
# 140407
# 153980
# 169495
# 185327
# 197890
# 212862
# 228632
#
# Disc length: 3260 seconds
# Revision: 3
# Processed by: cddbd v1.5.2PL0 Copyright (c) Steve Scherf et al.
# Submitted via: VisiTrax 2.11.3.279 - For more info visit www.synapsa.com
#
DISCID=f30cba10
DTITLE=Various Artist - Cryin' Lovin' or Leavin'
DYEAR=1996
DGENRE=Country
TTITLE0=Travis Tritt - Here's a Quarter
TTITLE1=Faith Fill - Piece of My Heart
TTITLE2=The Mavericks - There Goes My Heart
TTITLE3=John Micheal Montgomery - I Love the Way You Love Me
TTITLE4=Neal McCoy - Wink
TTITLE5=Patricia Conroy - What Else Can I Do
TTITLE6=Vince Gill - Liza Jane
TTITLE7=Bryan White - Rebecca Lynn
TTITLE8=Patty Loveless - Jealous Bone
TTITLE9=David Ball - Look What Followed Me Home
TTITLE10=Tracy Byrd - Walking to Jerusalem
TTITLE11=Marty Stewart - This One's Gonna Hurt You
TTITLE12=Clay Walker - Who Needs You Baby
TTITLE13=Dwight Yoakam - Ain't That Lonely Yet
TTITLE14=Tracy Lawrence - Texas Tornado
TTITLE15=Randy Travis - Forever and Ever, Amen
EXTD=
EXTT0=
EXTT1=
EXTT2=
EXTT3=
EXTT4=
EXTT5=
EXTT6=
EXTT7=
EXTT8=
EXTT9=
EXTT10=
EXTT11=
EXTT12=
EXTT13=
EXTT14=
EXTT15=
PLAYORDER=
